<mxfile modified="2024-08-27T17:18:00.535Z" host="Electron" agent="Mozilla/5.0 (Macintosh; Intel Mac OS X 10_15_7) AppleWebKit/537.36 (KHTML, like Gecko) draw.io/24.5.3 Chrome/124.0.6367.207 Electron/30.0.6 Safari/537.36" etag="lDCo5NnsR3XB9ScPIh2U" version="24.5.3" type="device">
  <diagram id="Ht1M8jgEwFfnCIfOTk4-" name="Page-1">
    <mxGraphModel dx="1328" dy="1118" grid="0" gridSize="10" guides="1" tooltips="1" connect="1" arrows="1" fold="1" page="1" pageScale="1" pageWidth="1169" pageHeight="827" math="0" shadow="0">
      <root>
        <mxCell id="0" />
        <mxCell id="1" parent="0" />
        <mxCell id="giLpwNqlkb6RfxS4_c0a-1" value="" style="rounded=1;arcSize=10;dashed=0;fillColor=none;gradientColor=none;strokeWidth=2;" parent="1" vertex="1">
          <mxGeometry x="195" y="248" width="927" height="677" as="geometry" />
        </mxCell>
        <mxCell id="giLpwNqlkb6RfxS4_c0a-27" value="&amp;nbsp; &amp;nbsp; Subnet:&amp;nbsp; 10.10.12.0/22&lt;br&gt;&amp;nbsp; &amp;nbsp; Domain: kubernerdes.lab" style="fillColor=none;strokeColor=#5A6C86;dashed=1;verticalAlign=top;fontStyle=0;fontColor=#5A6C86;whiteSpace=wrap;html=1;align=left;strokeWidth=3;" parent="1" vertex="1">
          <mxGeometry x="236" y="317" width="845" height="431" as="geometry" />
        </mxCell>
        <mxCell id="zZqlVJ54U7L3CnaIl7Do-32" value="&lt;b&gt;VMware&lt;/b&gt;" style="outlineConnect=0;html=1;whiteSpace=wrap;fontSize=12;fontStyle=0;strokeColor=#82b366;fillColor=#d5e8d4;verticalAlign=top;align=center;dashed=1;spacingTop=3;" parent="1" vertex="1">
          <mxGeometry x="784" y="434" width="284" height="231" as="geometry" />
        </mxCell>
        <mxCell id="zZqlVJ54U7L3CnaIl7Do-31" value="&lt;b&gt;EKS Anywhere&lt;/b&gt;" style="outlineConnect=0;html=1;whiteSpace=wrap;fontSize=12;fontStyle=0;strokeColor=#6c8ebf;fillColor=#dae8fc;verticalAlign=top;align=center;dashed=1;spacingTop=3;" parent="1" vertex="1">
          <mxGeometry x="251" y="434" width="302" height="298" as="geometry" />
        </mxCell>
        <mxCell id="zZqlVJ54U7L3CnaIl7Do-28" value="" style="verticalLabelPosition=bottom;html=1;verticalAlign=top;strokeWidth=1;align=center;outlineConnect=0;dashed=0;outlineConnect=0;shape=mxgraph.aws3d.ebs;fillColor=#ECECEC;strokeColor=#5E5E5E;aspect=fixed;" parent="1" vertex="1">
          <mxGeometry x="425.05" y="805" width="64.4" height="42" as="geometry" />
        </mxCell>
        <mxCell id="giLpwNqlkb6RfxS4_c0a-2" value="" style="dashed=0;html=1;shape=mxgraph.aws3.corporate_data_center;fillColor=#7D7C7C;gradientColor=none;dashed=0;" parent="1" vertex="1">
          <mxGeometry x="249" y="247" width="30" height="42" as="geometry" />
        </mxCell>
        <mxCell id="bdIBlkpDldWMxM4VtPXu-3" value="" style="edgeStyle=orthogonalEdgeStyle;rounded=0;orthogonalLoop=1;jettySize=auto;html=1;entryX=0.5;entryY=1;entryDx=0;entryDy=0;entryPerimeter=0;endArrow=none;endFill=0;" parent="1" source="giLpwNqlkb6RfxS4_c0a-21" target="bdIBlkpDldWMxM4VtPXu-1" edge="1">
          <mxGeometry relative="1" as="geometry">
            <mxPoint x="739.4" y="410.5" as="targetPoint" />
            <Array as="points">
              <mxPoint x="809" y="403" />
            </Array>
          </mxGeometry>
        </mxCell>
        <mxCell id="giLpwNqlkb6RfxS4_c0a-21" value="" style="image;points=[];aspect=fixed;html=1;align=center;shadow=0;dashed=0;image=img/lib/allied_telesis/switch/Switch_24_port_L3.svg;" parent="1" vertex="1">
          <mxGeometry x="585" y="373" width="74.4" height="51" as="geometry" />
        </mxCell>
        <mxCell id="giLpwNqlkb6RfxS4_c0a-32" value="" style="edgeStyle=orthogonalEdgeStyle;rounded=0;orthogonalLoop=1;jettySize=auto;html=1;" parent="1" source="giLpwNqlkb6RfxS4_c0a-26" target="giLpwNqlkb6RfxS4_c0a-29" edge="1">
          <mxGeometry relative="1" as="geometry" />
        </mxCell>
        <mxCell id="giLpwNqlkb6RfxS4_c0a-26" value="" style="image;aspect=fixed;perimeter=ellipsePerimeter;html=1;align=center;shadow=0;dashed=0;spacingTop=3;image=img/lib/active_directory/internet_cloud.svg;" parent="1" vertex="1">
          <mxGeometry x="553" y="53.3" width="198.41" height="125" as="geometry" />
        </mxCell>
        <mxCell id="giLpwNqlkb6RfxS4_c0a-31" value="" style="edgeStyle=orthogonalEdgeStyle;rounded=0;orthogonalLoop=1;jettySize=auto;html=1;endArrow=none;endFill=0;exitX=0.426;exitY=-0.022;exitDx=0;exitDy=0;exitPerimeter=0;" parent="1" source="n6KDSuUHy3L_TARxie_m-2" target="giLpwNqlkb6RfxS4_c0a-26" edge="1">
          <mxGeometry relative="1" as="geometry">
            <mxPoint x="670" y="226" as="sourcePoint" />
          </mxGeometry>
        </mxCell>
        <mxCell id="giLpwNqlkb6RfxS4_c0a-29" value="Amazon ECR" style="sketch=0;points=[[0,0,0],[0.25,0,0],[0.5,0,0],[0.75,0,0],[1,0,0],[0,1,0],[0.25,1,0],[0.5,1,0],[0.75,1,0],[1,1,0],[0,0.25,0],[0,0.5,0],[0,0.75,0],[1,0.25,0],[1,0.5,0],[1,0.75,0]];outlineConnect=0;fontColor=#232F3E;fillColor=#ED7100;strokeColor=#ffffff;dashed=0;verticalLabelPosition=bottom;verticalAlign=top;align=center;html=1;fontSize=12;fontStyle=0;aspect=fixed;shape=mxgraph.aws4.resourceIcon;resIcon=mxgraph.aws4.ecr;" parent="1" vertex="1">
          <mxGeometry x="370.82" y="86.25" width="59.1" height="59.1" as="geometry" />
        </mxCell>
        <mxCell id="giLpwNqlkb6RfxS4_c0a-30" value="Admin Workstation" style="image;points=[];aspect=fixed;html=1;align=center;shadow=0;dashed=0;image=img/lib/allied_telesis/computer_and_terminals/Laptop.svg;" parent="1" vertex="1">
          <mxGeometry x="627.32" y="783" width="85.77" height="87" as="geometry" />
        </mxCell>
        <mxCell id="EorF3O7ZFInKPDkzEAc7-24" style="edgeStyle=orthogonalEdgeStyle;rounded=0;orthogonalLoop=1;jettySize=auto;html=1;exitX=0;exitY=0.75;exitDx=0;exitDy=0;endArrow=none;endFill=0;" parent="1" source="n6KDSuUHy3L_TARxie_m-1" target="giLpwNqlkb6RfxS4_c0a-21" edge="1">
          <mxGeometry relative="1" as="geometry">
            <Array as="points">
              <mxPoint x="902" y="384" />
              <mxPoint x="902" y="419" />
            </Array>
          </mxGeometry>
        </mxCell>
        <mxCell id="n6KDSuUHy3L_TARxie_m-1" value="airport extreme&amp;nbsp;" style="image;html=1;image=img/lib/clip_art/networking/Wireless_Router_128x128.png" parent="1" vertex="1">
          <mxGeometry x="943" y="324" width="80" height="80" as="geometry" />
        </mxCell>
        <mxCell id="n6KDSuUHy3L_TARxie_m-4" style="edgeStyle=orthogonalEdgeStyle;rounded=0;orthogonalLoop=1;jettySize=auto;html=1;exitX=0.5;exitY=1;exitDx=0;exitDy=0;endArrow=none;endFill=0;" parent="1" source="n6KDSuUHy3L_TARxie_m-2" target="giLpwNqlkb6RfxS4_c0a-21" edge="1">
          <mxGeometry relative="1" as="geometry">
            <Array as="points">
              <mxPoint x="659" y="298" />
              <mxPoint x="630" y="298" />
            </Array>
          </mxGeometry>
        </mxCell>
        <mxCell id="n6KDSuUHy3L_TARxie_m-2" value="" style="image;aspect=fixed;perimeter=ellipsePerimeter;html=1;align=center;shadow=0;dashed=0;spacingTop=3;image=img/lib/active_directory/router.svg;" parent="1" vertex="1">
          <mxGeometry x="614.42" y="214.5" width="88.16" height="67" as="geometry" />
        </mxCell>
        <mxCell id="zZqlVJ54U7L3CnaIl7Do-14" value="" style="edgeStyle=orthogonalEdgeStyle;rounded=0;orthogonalLoop=1;jettySize=auto;html=1;endArrow=none;endFill=0;" parent="1" source="zZqlVJ54U7L3CnaIl7Do-1" target="giLpwNqlkb6RfxS4_c0a-21" edge="1">
          <mxGeometry relative="1" as="geometry">
            <Array as="points">
              <mxPoint x="618" y="501" />
            </Array>
            <mxPoint x="584" y="474" as="targetPoint" />
          </mxGeometry>
        </mxCell>
        <mxCell id="zZqlVJ54U7L3CnaIl7Do-4" value="" style="rounded=0;orthogonalLoop=1;jettySize=auto;html=1;endArrow=none;endFill=0;dashed=1;" parent="1" source="zZqlVJ54U7L3CnaIl7Do-2" target="zZqlVJ54U7L3CnaIl7Do-3" edge="1">
          <mxGeometry relative="1" as="geometry" />
        </mxCell>
        <mxCell id="zZqlVJ54U7L3CnaIl7Do-2" value="vsphere" style="verticalLabelPosition=bottom;html=1;verticalAlign=top;align=center;strokeColor=none;fillColor=#00BEF2;shape=mxgraph.azure.virtual_machine;" parent="1" vertex="1">
          <mxGeometry x="981" y="583" width="50" height="40" as="geometry" />
        </mxCell>
        <mxCell id="zZqlVJ54U7L3CnaIl7Do-8" value="" style="edgeStyle=orthogonalEdgeStyle;rounded=0;orthogonalLoop=1;jettySize=auto;html=1;endArrow=none;endFill=0;" parent="1" source="zZqlVJ54U7L3CnaIl7Do-3" target="giLpwNqlkb6RfxS4_c0a-21" edge="1">
          <mxGeometry relative="1" as="geometry">
            <mxPoint x="594.2" y="474" as="targetPoint" />
            <Array as="points">
              <mxPoint x="610" y="567" />
            </Array>
          </mxGeometry>
        </mxCell>
        <mxCell id="zZqlVJ54U7L3CnaIl7Do-3" value="vmw-esx-01" style="verticalLabelPosition=middle;html=1;verticalAlign=middle;strokeWidth=1;align=right;outlineConnect=0;dashed=0;outlineConnect=0;shape=mxgraph.aws3d.dataCenter;strokeColor=#5E5E5E;aspect=fixed;horizontal=1;labelPosition=right;" parent="1" vertex="1">
          <mxGeometry x="821" y="514" width="77.96" height="90" as="geometry" />
        </mxCell>
        <mxCell id="zZqlVJ54U7L3CnaIl7Do-15" value="" style="sketch=0;pointerEvents=1;shadow=0;dashed=0;html=1;strokeColor=none;fillColor=#434445;aspect=fixed;labelPosition=center;verticalLabelPosition=bottom;verticalAlign=top;align=center;outlineConnect=0;shape=mxgraph.vvd.keyboard;" parent="1" vertex="1">
          <mxGeometry x="415.05" y="865.25" width="50" height="35.5" as="geometry" />
        </mxCell>
        <mxCell id="zZqlVJ54U7L3CnaIl7Do-16" value="" style="image;points=[];aspect=fixed;html=1;align=center;shadow=0;dashed=0;image=img/lib/allied_telesis/security/DVS_Surveillance_Monitor.svg;" parent="1" vertex="1">
          <mxGeometry x="440.05" y="772" width="42" height="60" as="geometry" />
        </mxCell>
        <mxCell id="zZqlVJ54U7L3CnaIl7Do-17" value="" style="sketch=0;pointerEvents=1;shadow=0;dashed=0;html=1;strokeColor=none;fillColor=#434445;aspect=fixed;labelPosition=center;verticalLabelPosition=bottom;verticalAlign=top;align=center;outlineConnect=0;shape=mxgraph.vvd.mouse;" parent="1" vertex="1">
          <mxGeometry x="478.05" y="853" width="24.5" height="50" as="geometry" />
        </mxCell>
        <mxCell id="zZqlVJ54U7L3CnaIl7Do-29" value="KVM Switch" style="text;html=1;align=center;verticalAlign=middle;whiteSpace=wrap;rounded=0;" parent="1" vertex="1">
          <mxGeometry x="315.55" y="821" width="60" height="30" as="geometry" />
        </mxCell>
        <mxCell id="bdIBlkpDldWMxM4VtPXu-2" value="" style="edgeStyle=orthogonalEdgeStyle;rounded=0;orthogonalLoop=1;jettySize=auto;html=1;entryX=0.75;entryY=1;entryDx=0;entryDy=0;endArrow=none;endFill=0;" parent="1" source="bdIBlkpDldWMxM4VtPXu-1" target="giLpwNqlkb6RfxS4_c0a-26" edge="1">
          <mxGeometry relative="1" as="geometry">
            <mxPoint x="874" y="149" as="targetPoint" />
            <Array as="points">
              <mxPoint x="809" y="204" />
              <mxPoint x="733" y="204" />
            </Array>
          </mxGeometry>
        </mxCell>
        <mxCell id="bdIBlkpDldWMxM4VtPXu-1" value="5G Wireless Backup" style="sketch=0;points=[[0.5,0,0],[1,0.5,0],[0.5,1,0],[0,0.5,0],[0.145,0.145,0],[0.8555,0.145,0],[0.855,0.8555,0],[0.145,0.855,0]];verticalLabelPosition=bottom;html=1;verticalAlign=top;aspect=fixed;align=center;pointerEvents=1;shape=mxgraph.cisco19.rect;prIcon=wireless_router;fillColor=#FAFAFA;strokeColor=#005073;" parent="1" vertex="1">
          <mxGeometry x="784" y="214.5" width="50" height="60" as="geometry" />
        </mxCell>
        <mxCell id="EorF3O7ZFInKPDkzEAc7-2" value="" style="strokeColor=#666666;html=1;labelPosition=right;align=left;spacingLeft=15;shadow=0;dashed=0;outlineConnect=0;shape=mxgraph.rack.dell.power_strip;" parent="1" vertex="1">
          <mxGeometry x="859.2" y="780" width="162" height="15" as="geometry" />
        </mxCell>
        <mxCell id="EorF3O7ZFInKPDkzEAc7-3" value="Monitor" style="text;html=1;align=center;verticalAlign=middle;whiteSpace=wrap;rounded=0;" parent="1" vertex="1">
          <mxGeometry x="315.55" y="783" width="60" height="30" as="geometry" />
        </mxCell>
        <mxCell id="EorF3O7ZFInKPDkzEAc7-4" value="Keyboard/Mouse&lt;div&gt;&lt;br&gt;&lt;/div&gt;" style="text;html=1;align=center;verticalAlign=middle;whiteSpace=wrap;rounded=0;" parent="1" vertex="1">
          <mxGeometry x="295.8" y="877" width="99.5" height="30" as="geometry" />
        </mxCell>
        <mxCell id="EorF3O7ZFInKPDkzEAc7-6" value="" style="fontColor=#0066CC;verticalAlign=top;verticalLabelPosition=bottom;labelPosition=center;align=center;html=1;outlineConnect=0;fillColor=#CCCCCC;strokeColor=#6881B3;gradientColor=none;gradientDirection=north;strokeWidth=2;shape=mxgraph.networks.ups_small;" parent="1" vertex="1">
          <mxGeometry x="903.7900000000001" y="807" width="70" height="100" as="geometry" />
        </mxCell>
        <mxCell id="zZqlVJ54U7L3CnaIl7Do-1" value="truenas" style="verticalLabelPosition=middle;html=1;verticalAlign=middle;strokeWidth=1;align=center;outlineConnect=0;dashed=0;outlineConnect=0;shape=mxgraph.aws3d.dataServer;strokeColor=#5E5E5E;aspect=fixed;horizontal=1;labelPosition=right;" parent="1" vertex="1">
          <mxGeometry x="819.36" y="460" width="81.23" height="70" as="geometry" />
        </mxCell>
        <mxCell id="EorF3O7ZFInKPDkzEAc7-22" value="" style="edgeStyle=orthogonalEdgeStyle;rounded=0;orthogonalLoop=1;jettySize=auto;html=1;endArrow=none;endFill=0;" parent="1" source="EorF3O7ZFInKPDkzEAc7-18" target="giLpwNqlkb6RfxS4_c0a-21" edge="1">
          <mxGeometry relative="1" as="geometry">
            <mxPoint x="517.3499999999999" y="693" as="targetPoint" />
            <Array as="points">
              <mxPoint x="602" y="680" />
            </Array>
          </mxGeometry>
        </mxCell>
        <mxCell id="EorF3O7ZFInKPDkzEAc7-18" value="eks-mgmt-03" style="verticalLabelPosition=middle;html=1;verticalAlign=middle;strokeWidth=1;align=center;outlineConnect=0;dashed=0;outlineConnect=0;shape=mxgraph.aws3d.dataCenter;strokeColor=#5E5E5E;aspect=fixed;horizontal=1;labelPosition=left;" parent="1" vertex="1">
          <mxGeometry x="361.39" y="635" width="77.96" height="90" as="geometry" />
        </mxCell>
        <mxCell id="EorF3O7ZFInKPDkzEAc7-23" value="" style="edgeStyle=orthogonalEdgeStyle;rounded=0;orthogonalLoop=1;jettySize=auto;html=1;endArrow=none;endFill=0;" parent="1" source="EorF3O7ZFInKPDkzEAc7-17" target="giLpwNqlkb6RfxS4_c0a-21" edge="1">
          <mxGeometry relative="1" as="geometry">
            <mxPoint x="597" y="405" as="targetPoint" />
            <Array as="points">
              <mxPoint x="593" y="631" />
            </Array>
          </mxGeometry>
        </mxCell>
        <mxCell id="EorF3O7ZFInKPDkzEAc7-17" value="eks-mgmt-02" style="verticalLabelPosition=middle;html=1;verticalAlign=middle;strokeWidth=1;align=center;outlineConnect=0;dashed=0;outlineConnect=0;shape=mxgraph.aws3d.dataCenter;strokeColor=#5E5E5E;aspect=fixed;horizontal=1;labelPosition=left;" parent="1" vertex="1">
          <mxGeometry x="361.39" y="583" width="77.96" height="90" as="geometry" />
        </mxCell>
        <mxCell id="EorF3O7ZFInKPDkzEAc7-21" value="" style="edgeStyle=orthogonalEdgeStyle;rounded=0;orthogonalLoop=1;jettySize=auto;html=1;endArrow=none;endFill=0;" parent="1" source="EorF3O7ZFInKPDkzEAc7-14" target="giLpwNqlkb6RfxS4_c0a-21" edge="1">
          <mxGeometry relative="1" as="geometry">
            <mxPoint x="518.98" y="588" as="targetPoint" />
            <Array as="points">
              <mxPoint x="587" y="573" />
            </Array>
          </mxGeometry>
        </mxCell>
        <mxCell id="EorF3O7ZFInKPDkzEAc7-14" value="eks-mgmt-01" style="verticalLabelPosition=middle;html=1;verticalAlign=middle;strokeWidth=1;align=center;outlineConnect=0;dashed=0;outlineConnect=0;shape=mxgraph.aws3d.dataCenter;strokeColor=#5E5E5E;aspect=fixed;horizontal=1;labelPosition=left;" parent="1" vertex="1">
          <mxGeometry x="363.02" y="530" width="77.96" height="90" as="geometry" />
        </mxCell>
        <mxCell id="EorF3O7ZFInKPDkzEAc7-20" value="" style="edgeStyle=orthogonalEdgeStyle;rounded=0;orthogonalLoop=1;jettySize=auto;html=1;entryX=0;entryY=0.843;entryDx=0;entryDy=0;entryPerimeter=0;endArrow=none;endFill=0;" parent="1" source="giLpwNqlkb6RfxS4_c0a-9" target="giLpwNqlkb6RfxS4_c0a-21" edge="1">
          <mxGeometry relative="1" as="geometry">
            <mxPoint x="520.62" y="545" as="targetPoint" />
            <Array as="points">
              <mxPoint x="566" y="508" />
              <mxPoint x="566" y="416" />
            </Array>
          </mxGeometry>
        </mxCell>
        <mxCell id="giLpwNqlkb6RfxS4_c0a-9" value="thekubernerd" style="verticalLabelPosition=middle;html=1;verticalAlign=middle;strokeWidth=1;align=center;outlineConnect=0;dashed=0;outlineConnect=0;shape=mxgraph.aws3d.dataServer;strokeColor=#5E5E5E;aspect=fixed;labelPosition=left;" parent="1" vertex="1">
          <mxGeometry x="361.39" y="470" width="81.23" height="70" as="geometry" />
        </mxCell>
        <mxCell id="EorF3O7ZFInKPDkzEAc7-27" value="" style="shape=ellipse;fillColor=#00CC00;strokeColor=none;html=1;sketch=0;direction=south;" parent="1" vertex="1">
          <mxGeometry x="365" y="690" width="10" height="10" as="geometry" />
        </mxCell>
        <mxCell id="EorF3O7ZFInKPDkzEAc7-28" value="" style="shape=ellipse;fillColor=#FFFF33;strokeColor=none;html=1;sketch=0;" parent="1" vertex="1">
          <mxGeometry x="365" y="640" width="10" height="10" as="geometry" />
        </mxCell>
        <mxCell id="EorF3O7ZFInKPDkzEAc7-31" value="" style="shape=ellipse;fillColor=#FF0000;strokeColor=none;html=1;sketch=0;" parent="1" vertex="1">
          <mxGeometry x="365" y="586" width="10" height="10" as="geometry" />
        </mxCell>
        <mxCell id="EorF3O7ZFInKPDkzEAc7-32" value="" style="shape=ellipse;fillColor=#0065FF;strokeColor=none;html=1;sketch=0;" parent="1" vertex="1">
          <mxGeometry x="365" y="508" width="10" height="10" as="geometry" />
        </mxCell>
        <mxCell id="PSCPDOY8fNSchIrvInZT-1" style="edgeStyle=orthogonalEdgeStyle;rounded=0;orthogonalLoop=1;jettySize=auto;html=1;exitX=0.5;exitY=1;exitDx=0;exitDy=0;" edge="1" parent="1" source="zZqlVJ54U7L3CnaIl7Do-31" target="zZqlVJ54U7L3CnaIl7Do-31">
          <mxGeometry relative="1" as="geometry" />
        </mxCell>
      </root>
    </mxGraphModel>
  </diagram>
</mxfile>
